<svg xmlns="http://www.w3.org/2000/svg" version="1.1" xmlns:xlink="http://www.w3.org/1999/xlink" xmlns:svgjs="http://svgjs.com/svgjs" width="1440" height="560" preserveAspectRatio="none" viewBox="0 0 1440 560">
    <g mask="url(&quot;#SvgjsMask1033&quot;)" fill="none">
        <rect width="1440" height="560" x="0" y="0" fill="rgba(28, 146, 210, 1)"></rect>
        <path d="M1085.4526503682152 499.980420065394L1190.1649303469521 391.54767992128666 977.0199102241079 395.2681400866571z" fill="rgba(3, 60, 123, 0.3)" class="triangle-float3"></path>
        <path d="M1185.1044088151723 282.91752521767745L1129.2508523251297 193.5331501969173 1039.8664773043695 249.38670668695997 1095.720033794412 338.7710817077201z" fill="rgba(3, 60, 123, 0.3)" class="triangle-float1"></path>
        <path d="M1314.773,414.642C1359.525,415.203,1406.526,398.744,1426.979,358.935C1446.261,321.406,1424.725,279.379,1402.785,243.339C1382.041,209.263,1354.658,173.772,1314.773,174.616C1275.778,175.441,1252.846,213.364,1232.984,246.932C1212.568,281.435,1189.767,320.145,1207.34,356.179C1226.494,395.454,1271.079,414.094,1314.773,414.642" fill="rgba(3, 60, 123, 0.3)" class="triangle-float1"></path>
        <path d="M230.7832731295702 201.59565591319108L89.60416973003942 282.9261522718067 211.6874702774616 356.28119981165855z" fill="rgba(3, 60, 123, 0.3)" class="triangle-float3"></path>
        <path d="M230.82926871151903 119.39483537971822L144.23367675185125 209.0671958945931 233.90603726672617 295.66278785426084 320.5016292263939 205.99042733938597z" fill="rgba(3, 60, 123, 0.3)" class="triangle-float2"></path>
        <path d="M517.1362358897011 219.40745615029095L537.8744411320765 129.5804204669887 448.0474054487742 108.8422152246133 427.3092002063988 198.66925090791554z" fill="rgba(3, 60, 123, 0.3)" class="triangle-float1"></path>
        <path d="M1175.2243418223875 450.6550941086141L1268.0281858849505 490.04798876061534 1307.4210805369516 397.2441446980523 1214.6172364743886 357.85125004605106z" fill="rgba(3, 60, 123, 0.3)" class="triangle-float2"></path>
        <path d="M619.558,672.165C661.335,671.77,707.854,667.64,729.309,631.791C751.154,595.29,735.57,550.567,714.422,513.657C693.116,476.472,662.414,440.344,619.558,440.241C576.577,440.137,545.619,476.108,523.9,513.198C501.875,550.81,483.681,596.554,506.154,633.9C528.201,670.538,576.8,672.569,619.558,672.165" fill="rgba(3, 60, 123, 0.3)" class="triangle-float1"></path>
        <path d="M239.18,646.876C282.04,646.865,311.206,608.675,332.486,571.471C353.568,534.613,371.414,490.278,349.584,453.858C328.134,418.073,280.882,414.533,239.18,415.805C200.322,416.991,159.855,426.918,139.86,460.258C119.386,494.395,127.09,536.379,145.791,571.518C165.933,609.364,196.308,646.887,239.18,646.876" fill="rgba(3, 60, 123, 0.3)" class="triangle-float2"></path>
        <path d="M195.164308239487 633.157285586362L289.7842968064664 535.1754191347378 191.80243035484216 440.5554305677584 97.18244178786274 538.5372970193827z" fill="rgba(3, 60, 123, 0.3)" class="triangle-float3"></path>
        <path d="M848.7349166362603 234.17849981659322L756.4296380328018 361.2258164504482 975.7822332701153 326.48377842005175z" fill="rgba(3, 60, 123, 0.3)" class="triangle-float3"></path>
        <path d="M405.9207515368562 457.6625572987698L436.68539395259495 590.918863703521 569.941700357346 560.1542212877822 539.1770579416074 426.89791488303104z" fill="rgba(3, 60, 123, 0.3)" class="triangle-float1"></path>
        <path d="M1102.6834988310848 130.18364073634683L1145.298660428957 67.00406548447862 1029.2217167522185 34.67111071360459z" fill="rgba(3, 60, 123, 0.3)" class="triangle-float2"></path>
        <path d="M1011.916,328.151C1070.266,331.544,1132.477,309.835,1159.788,258.159C1185.904,208.744,1159.282,152.22,1130.085,104.56C1102.612,59.714,1064.415,19.894,1011.916,16.774C954.066,13.336,893.967,37.804,866.624,88.9C840.4,137.905,862.254,195.029,891.104,242.536C918.563,287.752,959.104,325.08,1011.916,328.151" fill="rgba(3, 60, 123, 0.3)" class="triangle-float2"></path>
        <path d="M602.849,408.424C648.869,408.336,700.111,402.394,723.238,362.607C746.442,322.689,727.813,274.251,703.747,234.847C680.947,197.517,646.591,165.613,602.849,165.493C558.934,165.372,523.946,196.856,500.985,234.29C476.66,273.948,458.17,322.911,481.661,363.069C505.003,402.972,556.62,408.512,602.849,408.424" fill="rgba(3, 60, 123, 0.3)" class="triangle-float1"></path>
        <path d="M875.4736505777599 158.26701715545425L847.7496227705623 300.8947757498455 990.3773813649535 328.6188035570432 1018.1014091721512 185.99104496265193z" fill="rgba(3, 60, 123, 0.3)" class="triangle-float3"></path>
        <path d="M757.3485411867501 416.58960852783144L723.0305332804002 369.3549228989446 669.3375087902449 444.44927757291293z" fill="rgba(3, 60, 123, 0.3)" class="triangle-float2"></path>
    </g>
    <defs>
        <mask id="SvgjsMask1033">
            <rect width="1440" height="560" fill="#ffffff"></rect>
        </mask>
        <style>
            @keyframes float1 {
                0%{transform: translate(0, 0)}
                50%{transform: translate(-10px, 0)}
                100%{transform: translate(0, 0)}
            }

            .triangle-float1 {
                animation: float1 5s infinite;
            }

            @keyframes float2 {
                0%{transform: translate(0, 0)}
                50%{transform: translate(-5px, -5px)}
                100%{transform: translate(0, 0)}
            }

            .triangle-float2 {
                animation: float2 4s infinite;
            }

            @keyframes float3 {
                0%{transform: translate(0, 0)}
                50%{transform: translate(0, -10px)}
                100%{transform: translate(0, 0)}
            }

            .triangle-float3 {
                animation: float3 6s infinite;
            }
        </style>
    </defs>
</svg>